<?xml version="1.0" encoding="UTF-8" standalone="no"?>
<!DOCTYPE svg PUBLIC "-//W3C//DTD SVG 1.1//EN"
 "http://www.w3.org/Graphics/SVG/1.1/DTD/svg11.dtd">
<!-- Generated by graphviz version 12.2.1 (20241206.2353)
 -->
<!-- Title: DFA_from_NFA Pages: 1 -->
<svg width="349pt" height="191pt"
 viewBox="0.00 0.00 349.24 191.41" xmlns="http://www.w3.org/2000/svg" xmlns:xlink="http://www.w3.org/1999/xlink">
<g id="graph0" class="graph" transform="scale(1 1) rotate(0) translate(4 187.41)">
<title>DFA_from_NFA</title>
<polygon fill="white" stroke="none" points="-4,4 -4,-187.41 345.24,-187.41 345.24,4 -4,4"/>
<!-- S0 -->
<g id="node1" class="node">
<title>S0</title>
<ellipse fill="none" stroke="black" cx="61.24" cy="-35.91" rx="20.64" ry="20.64"/>
<text text-anchor="middle" x="61.24" y="-30.86" font-family="Times New Roman,serif" font-size="14.00">S0</text>
</g>
<!-- S1 -->
<g id="node2" class="node">
<title>S1</title>
<ellipse fill="none" stroke="black" cx="144.53" cy="-108.91" rx="20.64" ry="20.64"/>
<text text-anchor="middle" x="144.53" y="-103.86" font-family="Times New Roman,serif" font-size="14.00">S1</text>
</g>
<!-- S0&#45;&gt;S1 -->
<g id="edge2" class="edge">
<title>S0&#45;&gt;S1</title>
<path fill="none" stroke="black" d="M77.15,-49.3C89.11,-60.04 106.11,-75.31 119.92,-87.7"/>
<polygon fill="black" stroke="black" points="117.53,-90.27 127.31,-94.35 122.21,-85.06 117.53,-90.27"/>
<text text-anchor="middle" x="102.89" y="-77.8" font-family="Times New Roman,serif" font-size="14.00">a</text>
</g>
<!-- S2 -->
<g id="node3" class="node">
<title>S2</title>
<ellipse fill="none" stroke="black" cx="232.56" cy="-45.91" rx="20.64" ry="20.64"/>
<ellipse fill="none" stroke="black" cx="232.56" cy="-45.91" rx="24.64" ry="24.64"/>
<text text-anchor="middle" x="232.56" y="-40.86" font-family="Times New Roman,serif" font-size="14.00">S2</text>
</g>
<!-- S0&#45;&gt;S2 -->
<g id="edge3" class="edge">
<title>S0&#45;&gt;S2</title>
<path fill="none" stroke="black" d="M82.33,-37.1C110.38,-38.75 161.73,-41.78 196.25,-43.82"/>
<polygon fill="black" stroke="black" points="195.99,-47.31 206.18,-44.41 196.41,-40.33 195.99,-47.31"/>
<text text-anchor="middle" x="144.53" y="-45.1" font-family="Times New Roman,serif" font-size="14.00">b</text>
</g>
<!-- S3 -->
<g id="node4" class="node">
<title>S3</title>
<ellipse fill="none" stroke="black" cx="320.6" cy="-85.91" rx="20.64" ry="20.64"/>
<text text-anchor="middle" x="320.6" y="-80.86" font-family="Times New Roman,serif" font-size="14.00">S3</text>
</g>
<!-- S0&#45;&gt;S3 -->
<g id="edge4" class="edge">
<title>S0&#45;&gt;S3</title>
<path fill="none" stroke="black" d="M80.44,-27.49C116.14,-12.27 197.13,15.8 257.21,-11.91 277.74,-21.38 293.93,-41.35 304.67,-58.15"/>
<polygon fill="black" stroke="black" points="301.41,-59.53 309.57,-66.29 307.4,-55.91 301.41,-59.53"/>
<text text-anchor="middle" x="186.55" y="-3.86" font-family="Times New Roman,serif" font-size="14.00">c</text>
</g>
<!-- S1&#45;&gt;S1 -->
<g id="edge5" class="edge">
<title>S1&#45;&gt;S1</title>
<path fill="none" stroke="black" d="M137,-128.39C135.84,-138.47 138.35,-147.55 144.53,-147.55 148.2,-147.55 150.58,-144.35 151.66,-139.64"/>
<polygon fill="black" stroke="black" points="155.15,-140.03 152.01,-129.91 148.15,-139.78 155.15,-140.03"/>
<text text-anchor="middle" x="144.53" y="-150.75" font-family="Times New Roman,serif" font-size="14.00">a</text>
</g>
<!-- S1&#45;&gt;S2 -->
<g id="edge6" class="edge">
<title>S1&#45;&gt;S2</title>
<path fill="none" stroke="black" d="M163.98,-101.36C172.26,-97.58 181.93,-92.6 189.92,-86.91 196,-82.58 202.01,-77.36 207.51,-72.12"/>
<polygon fill="black" stroke="black" points="209.98,-74.59 214.58,-65.05 205.03,-69.65 209.98,-74.59"/>
<text text-anchor="middle" x="186.55" y="-93.83" font-family="Times New Roman,serif" font-size="14.00">b</text>
</g>
<!-- S1&#45;&gt;S3 -->
<g id="edge7" class="edge">
<title>S1&#45;&gt;S3</title>
<path fill="none" stroke="black" d="M156.07,-126.48C162.71,-136.17 172.13,-147.67 183.17,-154.91 210.81,-173.03 224.47,-166.45 257.21,-161.91 268.53,-160.34 273.02,-162.04 281.96,-154.91 294.41,-144.97 303.34,-129.74 309.36,-116.11"/>
<polygon fill="black" stroke="black" points="312.52,-117.65 313.02,-107.07 306.03,-115.03 312.52,-117.65"/>
<text text-anchor="middle" x="232.56" y="-170.11" font-family="Times New Roman,serif" font-size="14.00">c</text>
</g>
<!-- S2&#45;&gt;S1 -->
<g id="edge8" class="edge">
<title>S2&#45;&gt;S1</title>
<path fill="none" stroke="black" d="M208.79,-53.15C200.31,-56.45 190.88,-60.87 183.17,-66.41 176.5,-71.2 170.19,-77.38 164.7,-83.53"/>
<polygon fill="black" stroke="black" points="162.02,-81.28 158.29,-91.19 167.39,-85.77 162.02,-81.28"/>
<text text-anchor="middle" x="186.55" y="-69.61" font-family="Times New Roman,serif" font-size="14.00">a</text>
</g>
<!-- S2&#45;&gt;S2 -->
<g id="edge9" class="edge">
<title>S2&#45;&gt;S2</title>
<path fill="none" stroke="black" d="M224.07,-69.16C223.26,-79.56 226.09,-88.55 232.56,-88.55 236.41,-88.55 238.97,-85.38 240.24,-80.63"/>
<polygon fill="black" stroke="black" points="243.73,-80.89 240.95,-70.67 236.75,-80.39 243.73,-80.89"/>
<text text-anchor="middle" x="232.56" y="-91.75" font-family="Times New Roman,serif" font-size="14.00">b</text>
</g>
<!-- S2&#45;&gt;S3 -->
<g id="edge10" class="edge">
<title>S2&#45;&gt;S3</title>
<path fill="none" stroke="black" d="M257.49,-43.13C265.56,-43.1 274.42,-44.1 281.96,-47.41 288.81,-50.42 295.06,-55.31 300.41,-60.62"/>
<polygon fill="black" stroke="black" points="297.73,-62.87 307.03,-67.95 302.93,-58.18 297.73,-62.87"/>
<text text-anchor="middle" x="278.58" y="-50.61" font-family="Times New Roman,serif" font-size="14.00">c</text>
</g>
<!-- S3&#45;&gt;S1 -->
<g id="edge11" class="edge">
<title>S3&#45;&gt;S1</title>
<path fill="none" stroke="black" d="M302.26,-96.09C290.11,-102.61 273.23,-110.48 257.21,-113.91 230.34,-119.66 199.04,-117.52 176.42,-114.46"/>
<polygon fill="black" stroke="black" points="177.05,-111.02 166.64,-112.99 176.01,-117.94 177.05,-111.02"/>
<text text-anchor="middle" x="232.56" y="-120.72" font-family="Times New Roman,serif" font-size="14.00">a</text>
</g>
<!-- S3&#45;&gt;S2 -->
<g id="edge12" class="edge">
<title>S3&#45;&gt;S2</title>
<path fill="none" stroke="black" d="M301.39,-77.44C290.97,-72.6 277.6,-66.38 265.49,-60.75"/>
<polygon fill="black" stroke="black" points="267.19,-57.68 256.65,-56.64 264.24,-64.03 267.19,-57.68"/>
<text text-anchor="middle" x="278.58" y="-71.5" font-family="Times New Roman,serif" font-size="14.00">b</text>
</g>
<!-- S3&#45;&gt;S3 -->
<g id="edge13" class="edge">
<title>S3&#45;&gt;S3</title>
<path fill="none" stroke="black" d="M313,-105.39C311.83,-115.47 314.36,-124.55 320.6,-124.55 324.3,-124.55 326.7,-121.35 327.79,-116.64"/>
<polygon fill="black" stroke="black" points="331.28,-117.03 328.15,-106.91 324.29,-116.77 331.28,-117.03"/>
<text text-anchor="middle" x="320.6" y="-127.75" font-family="Times New Roman,serif" font-size="14.00">c</text>
</g>
<!-- start -->
<!-- start&#45;&gt;S0 -->
<g id="edge1" class="edge">
<title>start&#45;&gt;S0</title>
<path fill="none" stroke="black" d="M3.8,-35.91C7.06,-35.91 17.86,-35.91 29.15,-35.91"/>
<polygon fill="black" stroke="black" points="28.83,-39.41 38.83,-35.91 28.83,-32.41 28.83,-39.41"/>
</g>
</g>
</svg>
