<?xml version="1.0" encoding="UTF-8" standalone="no"?>
<!DOCTYPE svg PUBLIC "-//W3C//DTD SVG 1.1//EN"
 "http://www.w3.org/Graphics/SVG/1.1/DTD/svg11.dtd">
<!-- Generated by graphviz version 12.2.1 (20241206.2353)
 -->
<!-- Title: Minimized_DFA Pages: 1 -->
<svg width="184pt" height="87pt"
 viewBox="0.00 0.00 184.10 86.50" xmlns="http://www.w3.org/2000/svg" xmlns:xlink="http://www.w3.org/1999/xlink">
<g id="graph0" class="graph" transform="scale(1 1) rotate(0) translate(4 82.5)">
<title>Minimized_DFA</title>
<polygon fill="white" stroke="none" points="-4,4 -4,-82.5 180.1,-82.5 180.1,4 -4,4"/>
<!-- A -->
<g id="node1" class="node">
<title>A</title>
<ellipse fill="lightblue" stroke="black" cx="58.6" cy="-22" rx="18" ry="18"/>
<text text-anchor="middle" x="58.6" y="-16.95" font-family="Times New Roman,serif" font-size="14.00">A</text>
</g>
<!-- A&#45;&gt;A -->
<g id="edge3" class="edge">
<title>A&#45;&gt;A</title>
<path fill="none" stroke="black" d="M52.13,-39.04C50.81,-48.86 52.97,-58 58.6,-58 61.86,-58 63.95,-54.94 64.88,-50.47"/>
<polygon fill="black" stroke="black" points="68.38,-50.61 65.04,-40.55 61.38,-50.49 68.38,-50.61"/>
<text text-anchor="middle" x="58.6" y="-61.2" font-family="Times New Roman,serif" font-size="14.00">a, c</text>
</g>
<!-- B -->
<g id="node2" class="node">
<title>B</title>
<ellipse fill="lightgreen" stroke="black" cx="154.1" cy="-22" rx="18" ry="18"/>
<ellipse fill="none" stroke="black" cx="154.1" cy="-22" rx="22" ry="22"/>
<text text-anchor="middle" x="154.1" y="-16.95" font-family="Times New Roman,serif" font-size="14.00">B</text>
</g>
<!-- A&#45;&gt;B -->
<g id="edge2" class="edge">
<title>A&#45;&gt;B</title>
<path fill="none" stroke="black" d="M76.75,-22C88.98,-22 105.8,-22 120.54,-22"/>
<polygon fill="black" stroke="black" points="120.28,-25.5 130.28,-22 120.28,-18.5 120.28,-25.5"/>
<text text-anchor="middle" x="104.35" y="-25.2" font-family="Times New Roman,serif" font-size="14.00">b</text>
</g>
<!-- B&#45;&gt;A -->
<g id="edge5" class="edge">
<title>B&#45;&gt;A</title>
<path fill="none" stroke="black" d="M135.39,-9.9C123.89,-3.52 108.52,2.28 94.6,-1.5 90.75,-2.55 86.88,-4.13 83.2,-5.97"/>
<polygon fill="black" stroke="black" points="81.7,-2.8 74.78,-10.83 85.2,-8.86 81.7,-2.8"/>
<text text-anchor="middle" x="104.35" y="-4.7" font-family="Times New Roman,serif" font-size="14.00">a, c</text>
</g>
<!-- B&#45;&gt;B -->
<g id="edge4" class="edge">
<title>B&#45;&gt;B</title>
<path fill="none" stroke="black" d="M145.05,-42.58C143.79,-52.84 146.81,-62 154.1,-62 158.43,-62 161.25,-58.77 162.56,-54"/>
<polygon fill="black" stroke="black" points="166.06,-54.26 163.07,-44.09 159.07,-53.9 166.06,-54.26"/>
<text text-anchor="middle" x="154.1" y="-65.2" font-family="Times New Roman,serif" font-size="14.00">b</text>
</g>
<!-- start -->
<!-- start&#45;&gt;A -->
<g id="edge1" class="edge">
<title>start&#45;&gt;A</title>
<path fill="none" stroke="black" d="M3.75,-22C6.96,-22 17.8,-22 28.92,-22"/>
<polygon fill="black" stroke="black" points="28.79,-25.5 38.79,-22 28.78,-18.5 28.79,-25.5"/>
</g>
</g>
</svg>
