<?xml version="1.0" encoding="UTF-8" standalone="no"?>
<!DOCTYPE svg PUBLIC "-//W3C//DTD SVG 1.1//EN"
 "http://www.w3.org/Graphics/SVG/1.1/DTD/svg11.dtd">
<!-- Generated by graphviz version 12.2.1 (20241206.2353)
 -->
<!-- Title: NFA_for_regex Pages: 1 -->
<svg width="720pt" height="168pt"
 viewBox="0.00 0.00 720.00 167.90" xmlns="http://www.w3.org/2000/svg" xmlns:xlink="http://www.w3.org/1999/xlink">
<g id="graph0" class="graph" transform="scale(0.685675 0.685675) rotate(0) translate(4 240.87)">
<title>NFA_for_regex</title>
<polygon fill="white" stroke="none" points="-4,4 -4,-240.87 1046.06,-240.87 1046.06,4 -4,4"/>
<!-- q0 -->
<g id="node1" class="node">
<title>q0</title>
<ellipse fill="none" stroke="black" cx="60.73" cy="-28.74" rx="20.13" ry="20.13"/>
<text text-anchor="middle" x="60.73" y="-23.69" font-family="Times New Roman,serif" font-size="14.00">q0</text>
</g>
<!-- q1 -->
<g id="node2" class="node">
<title>q1</title>
<ellipse fill="none" stroke="black" cx="142.99" cy="-100.74" rx="20.13" ry="20.13"/>
<text text-anchor="middle" x="142.99" y="-95.69" font-family="Times New Roman,serif" font-size="14.00">q1</text>
</g>
<!-- q0&#45;&gt;q1 -->
<g id="edge2" class="edge">
<title>q0&#45;&gt;q1</title>
<path fill="none" stroke="black" d="M76.45,-41.94C88.33,-52.6 105.26,-67.78 118.93,-80.05"/>
<polygon fill="black" stroke="black" points="116.46,-82.53 126.24,-86.6 121.13,-77.32 116.46,-82.53"/>
<text text-anchor="middle" x="101.86" y="-70.1" font-family="Times New Roman,serif" font-size="14.00">ε</text>
</g>
<!-- q7 -->
<g id="node8" class="node">
<title>q7</title>
<ellipse fill="none" stroke="black" cx="472.79" cy="-28.74" rx="20.13" ry="20.13"/>
<text text-anchor="middle" x="472.79" y="-23.69" font-family="Times New Roman,serif" font-size="14.00">q7</text>
</g>
<!-- q0&#45;&gt;q7 -->
<g id="edge4" class="edge">
<title>q0&#45;&gt;q7</title>
<path fill="none" stroke="black" d="M80.33,-22.87C96.47,-18.3 120.54,-12.74 141.99,-12.74 141.99,-12.74 141.99,-12.74 391.53,-12.74 408.63,-12.74 427.38,-16.27 442.46,-20.02"/>
<polygon fill="black" stroke="black" points="441.16,-23.29 451.73,-22.48 442.96,-16.53 441.16,-23.29"/>
<text text-anchor="middle" x="266.76" y="-15.94" font-family="Times New Roman,serif" font-size="14.00">ε</text>
</g>
<!-- q2 -->
<g id="node3" class="node">
<title>q2</title>
<ellipse fill="none" stroke="black" cx="225.26" cy="-216.74" rx="20.13" ry="20.13"/>
<text text-anchor="middle" x="225.26" y="-211.69" font-family="Times New Roman,serif" font-size="14.00">q2</text>
</g>
<!-- q1&#45;&gt;q2 -->
<g id="edge6" class="edge">
<title>q1&#45;&gt;q2</title>
<path fill="none" stroke="black" d="M155.15,-116.87C168.44,-136.06 190.79,-168.36 206.46,-191.02"/>
<polygon fill="black" stroke="black" points="203.5,-192.89 212.07,-199.13 209.26,-188.91 203.5,-192.89"/>
<text text-anchor="middle" x="184.12" y="-165.42" font-family="Times New Roman,serif" font-size="14.00">ε</text>
</g>
<!-- q3 -->
<g id="node4" class="node">
<title>q3</title>
<ellipse fill="none" stroke="black" cx="225.26" cy="-158.74" rx="20.13" ry="20.13"/>
<text text-anchor="middle" x="225.26" y="-153.69" font-family="Times New Roman,serif" font-size="14.00">q3</text>
</g>
<!-- q1&#45;&gt;q3 -->
<g id="edge7" class="edge">
<title>q1&#45;&gt;q3</title>
<path fill="none" stroke="black" d="M159.85,-112.2C171.06,-120.3 186.33,-131.33 199.18,-140.62"/>
<polygon fill="black" stroke="black" points="197.05,-143.4 207.2,-146.42 201.15,-137.72 197.05,-143.4"/>
<text text-anchor="middle" x="184.12" y="-134.68" font-family="Times New Roman,serif" font-size="14.00">ε</text>
</g>
<!-- q4 -->
<g id="node5" class="node">
<title>q4</title>
<ellipse fill="none" stroke="black" cx="225.26" cy="-100.74" rx="20.13" ry="20.13"/>
<text text-anchor="middle" x="225.26" y="-95.69" font-family="Times New Roman,serif" font-size="14.00">q4</text>
</g>
<!-- q1&#45;&gt;q4 -->
<g id="edge8" class="edge">
<title>q1&#45;&gt;q4</title>
<path fill="none" stroke="black" d="M163.42,-100.74C172.43,-100.74 183.34,-100.74 193.43,-100.74"/>
<polygon fill="black" stroke="black" points="193.21,-104.24 203.21,-100.74 193.21,-97.24 193.21,-104.24"/>
<text text-anchor="middle" x="184.12" y="-103.94" font-family="Times New Roman,serif" font-size="14.00">ε</text>
</g>
<!-- q5 -->
<g id="node6" class="node">
<title>q5</title>
<ellipse fill="none" stroke="black" cx="308.27" cy="-128.74" rx="20.13" ry="20.13"/>
<text text-anchor="middle" x="308.27" y="-123.69" font-family="Times New Roman,serif" font-size="14.00">q5</text>
</g>
<!-- q2&#45;&gt;q5 -->
<g id="edge9" class="edge">
<title>q2&#45;&gt;q5</title>
<path fill="none" stroke="black" d="M239.63,-202.21C252.3,-188.45 271.51,-167.58 286.23,-151.59"/>
<polygon fill="black" stroke="black" points="288.65,-154.13 292.85,-144.4 283.5,-149.39 288.65,-154.13"/>
<text text-anchor="middle" x="266.76" y="-178.58" font-family="Times New Roman,serif" font-size="14.00">a</text>
</g>
<!-- q3&#45;&gt;q5 -->
<g id="edge10" class="edge">
<title>q3&#45;&gt;q5</title>
<path fill="none" stroke="black" d="M244.64,-151.93C254.58,-148.25 267.09,-143.62 278.31,-139.46"/>
<polygon fill="black" stroke="black" points="279.38,-142.8 287.54,-136.04 276.95,-136.23 279.38,-142.8"/>
<text text-anchor="middle" x="266.76" y="-147.84" font-family="Times New Roman,serif" font-size="14.00">b</text>
</g>
<!-- q4&#45;&gt;q5 -->
<g id="edge11" class="edge">
<title>q4&#45;&gt;q5</title>
<path fill="none" stroke="black" d="M244.66,-106.68C252.52,-109.26 261.8,-112.34 270.14,-115.24 272.86,-116.18 275.69,-117.18 278.51,-118.19"/>
<polygon fill="black" stroke="black" points="277.16,-121.42 287.75,-121.52 279.54,-114.84 277.16,-121.42"/>
<text text-anchor="middle" x="266.76" y="-118.44" font-family="Times New Roman,serif" font-size="14.00">c</text>
</g>
<!-- q6 -->
<g id="node7" class="node">
<title>q6</title>
<ellipse fill="none" stroke="black" cx="390.53" cy="-60.74" rx="20.13" ry="20.13"/>
<text text-anchor="middle" x="390.53" y="-55.69" font-family="Times New Roman,serif" font-size="14.00">q6</text>
</g>
<!-- q5&#45;&gt;q6 -->
<g id="edge12" class="edge">
<title>q5&#45;&gt;q6</title>
<path fill="none" stroke="black" d="M324.36,-115.95C336.02,-106.07 352.38,-92.21 365.78,-80.86"/>
<polygon fill="black" stroke="black" points="367.98,-83.58 373.35,-74.45 363.45,-78.24 367.98,-83.58"/>
<text text-anchor="middle" x="349.4" y="-99.98" font-family="Times New Roman,serif" font-size="14.00">ε</text>
</g>
<!-- q6&#45;&gt;q1 -->
<g id="edge5" class="edge">
<title>q6&#45;&gt;q1</title>
<path fill="none" stroke="black" d="M370.04,-59.49C335.98,-57.85 263.68,-56.71 205.12,-71.74 193.39,-74.75 181.18,-80.04 170.79,-85.29"/>
<polygon fill="black" stroke="black" points="169.24,-82.15 162.05,-89.94 172.53,-88.33 169.24,-82.15"/>
<text text-anchor="middle" x="266.76" y="-64.89" font-family="Times New Roman,serif" font-size="14.00">ε</text>
</g>
<!-- q6&#45;&gt;q7 -->
<g id="edge3" class="edge">
<title>q6&#45;&gt;q7</title>
<path fill="none" stroke="black" d="M409.74,-53.48C419.59,-49.55 431.99,-44.61 443.1,-40.18"/>
<polygon fill="black" stroke="black" points="444.25,-43.49 452.25,-36.53 441.66,-36.98 444.25,-43.49"/>
<text text-anchor="middle" x="431.66" y="-48.9" font-family="Times New Roman,serif" font-size="14.00">ε</text>
</g>
<!-- q8 -->
<g id="node9" class="node">
<title>q8</title>
<ellipse fill="none" stroke="black" cx="555.05" cy="-77.74" rx="20.13" ry="20.13"/>
<text text-anchor="middle" x="555.05" y="-72.69" font-family="Times New Roman,serif" font-size="14.00">q8</text>
</g>
<!-- q7&#45;&gt;q8 -->
<g id="edge13" class="edge">
<title>q7&#45;&gt;q8</title>
<path fill="none" stroke="black" d="M490.42,-38.89C501.18,-45.46 515.43,-54.16 527.71,-61.65"/>
<polygon fill="black" stroke="black" points="525.79,-64.59 536.15,-66.81 529.44,-58.61 525.79,-64.59"/>
<text text-anchor="middle" x="513.92" y="-57.91" font-family="Times New Roman,serif" font-size="14.00">ε</text>
</g>
<!-- q13 -->
<g id="node14" class="node">
<title>q13</title>
<ellipse fill="none" stroke="black" cx="917.1" cy="-28.74" rx="24.74" ry="24.74"/>
<text text-anchor="middle" x="917.1" y="-23.69" font-family="Times New Roman,serif" font-size="14.00">q13</text>
</g>
<!-- q7&#45;&gt;q13 -->
<g id="edge15" class="edge">
<title>q7&#45;&gt;q13</title>
<path fill="none" stroke="black" d="M492.4,-22.87C508.53,-18.3 532.6,-12.74 554.05,-12.74 554.05,-12.74 554.05,-12.74 826.62,-12.74 845.09,-12.74 865.36,-16.08 881.94,-19.71"/>
<polygon fill="black" stroke="black" points="880.75,-23.02 891.28,-21.89 882.33,-16.21 880.75,-23.02"/>
<text text-anchor="middle" x="688.04" y="-15.94" font-family="Times New Roman,serif" font-size="14.00">ε</text>
</g>
<!-- q9 -->
<g id="node10" class="node">
<title>q9</title>
<ellipse fill="none" stroke="black" cx="641.92" cy="-168.74" rx="20.13" ry="20.13"/>
<text text-anchor="middle" x="641.92" y="-163.69" font-family="Times New Roman,serif" font-size="14.00">q9</text>
</g>
<!-- q8&#45;&gt;q9 -->
<g id="edge17" class="edge">
<title>q8&#45;&gt;q9</title>
<path fill="none" stroke="black" d="M569.32,-91.96C582.81,-106.43 603.94,-129.09 619.76,-146.04"/>
<polygon fill="black" stroke="black" points="617.06,-148.29 626.44,-153.21 622.18,-143.51 617.06,-148.29"/>
<text text-anchor="middle" x="596.19" y="-126.44" font-family="Times New Roman,serif" font-size="14.00">ε</text>
</g>
<!-- q10 -->
<g id="node11" class="node">
<title>q10</title>
<ellipse fill="none" stroke="black" cx="641.92" cy="-105.74" rx="24.74" ry="24.74"/>
<text text-anchor="middle" x="641.92" y="-100.69" font-family="Times New Roman,serif" font-size="14.00">q10</text>
</g>
<!-- q8&#45;&gt;q10 -->
<g id="edge18" class="edge">
<title>q8&#45;&gt;q10</title>
<path fill="none" stroke="black" d="M574.47,-83.81C584.05,-86.97 596.06,-90.94 607.23,-94.62"/>
<polygon fill="black" stroke="black" points="605.97,-97.89 616.56,-97.7 608.16,-91.24 605.97,-97.89"/>
<text text-anchor="middle" x="596.19" y="-94.94" font-family="Times New Roman,serif" font-size="14.00">ε</text>
</g>
<!-- q11 -->
<g id="node12" class="node">
<title>q11</title>
<ellipse fill="none" stroke="black" cx="734.15" cy="-105.74" rx="24.74" ry="24.74"/>
<text text-anchor="middle" x="734.15" y="-100.69" font-family="Times New Roman,serif" font-size="14.00">q11</text>
</g>
<!-- q9&#45;&gt;q11 -->
<g id="edge19" class="edge">
<title>q9&#45;&gt;q11</title>
<path fill="none" stroke="black" d="M659.05,-157.47C671.53,-148.76 689.13,-136.47 704.04,-126.06"/>
<polygon fill="black" stroke="black" points="705.94,-129 712.14,-120.41 701.94,-123.26 705.94,-129"/>
<text text-anchor="middle" x="688.04" y="-142.33" font-family="Times New Roman,serif" font-size="14.00">a</text>
</g>
<!-- q10&#45;&gt;q11 -->
<g id="edge20" class="edge">
<title>q10&#45;&gt;q11</title>
<path fill="none" stroke="black" d="M667.1,-105.74C676.58,-105.74 687.65,-105.74 697.98,-105.74"/>
<polygon fill="black" stroke="black" points="697.7,-109.24 707.7,-105.74 697.7,-102.24 697.7,-109.24"/>
<text text-anchor="middle" x="688.04" y="-108.94" font-family="Times New Roman,serif" font-size="14.00">b</text>
</g>
<!-- q12 -->
<g id="node13" class="node">
<title>q12</title>
<ellipse fill="none" stroke="black" cx="825.62" cy="-65.74" rx="24.74" ry="24.74"/>
<text text-anchor="middle" x="825.62" y="-60.69" font-family="Times New Roman,serif" font-size="14.00">q12</text>
</g>
<!-- q11&#45;&gt;q12 -->
<g id="edge21" class="edge">
<title>q11&#45;&gt;q12</title>
<path fill="none" stroke="black" d="M757.27,-95.85C767.8,-91.14 780.62,-85.41 792.23,-80.22"/>
<polygon fill="black" stroke="black" points="793.37,-83.54 801.07,-76.27 790.51,-77.15 793.37,-83.54"/>
<text text-anchor="middle" x="779.89" y="-90.14" font-family="Times New Roman,serif" font-size="14.00">ε</text>
</g>
<!-- q12&#45;&gt;q8 -->
<g id="edge16" class="edge">
<title>q12&#45;&gt;q8</title>
<path fill="none" stroke="black" d="M800.64,-65.89C761.99,-66.27 683.52,-67.53 617.19,-71.74 607.2,-72.37 596.32,-73.35 586.54,-74.33"/>
<polygon fill="black" stroke="black" points="586.39,-70.83 576.81,-75.35 587.12,-77.79 586.39,-70.83"/>
<text text-anchor="middle" x="688.04" y="-71.65" font-family="Times New Roman,serif" font-size="14.00">ε</text>
</g>
<!-- q12&#45;&gt;q13 -->
<g id="edge14" class="edge">
<title>q12&#45;&gt;q13</title>
<path fill="none" stroke="black" d="M848.74,-56.59C859.17,-52.28 871.83,-47.04 883.34,-42.28"/>
<polygon fill="black" stroke="black" points="884.62,-45.54 892.53,-38.48 881.95,-39.07 884.62,-45.54"/>
<text text-anchor="middle" x="871.36" y="-51.55" font-family="Times New Roman,serif" font-size="14.00">ε</text>
</g>
<!-- q14 -->
<g id="node15" class="node">
<title>q14</title>
<ellipse fill="none" stroke="black" cx="1013.32" cy="-28.74" rx="24.74" ry="24.74"/>
<ellipse fill="none" stroke="black" cx="1013.32" cy="-28.74" rx="28.74" ry="28.74"/>
<text text-anchor="middle" x="1013.32" y="-23.69" font-family="Times New Roman,serif" font-size="14.00">q14</text>
</g>
<!-- q13&#45;&gt;q14 -->
<g id="edge22" class="edge">
<title>q13&#45;&gt;q14</title>
<path fill="none" stroke="black" d="M941.87,-28.74C951.22,-28.74 962.21,-28.74 972.69,-28.74"/>
<polygon fill="black" stroke="black" points="972.68,-32.24 982.68,-28.74 972.68,-25.24 972.68,-32.24"/>
<text text-anchor="middle" x="963.21" y="-31.94" font-family="Times New Roman,serif" font-size="14.00">b</text>
</g>
<!-- start -->
<!-- start&#45;&gt;q0 -->
<g id="edge1" class="edge">
<title>start&#45;&gt;q0</title>
<path fill="none" stroke="black" d="M3.79,-28.74C7.01,-28.74 17.65,-28.74 28.79,-28.74"/>
<polygon fill="black" stroke="black" points="28.79,-32.24 38.79,-28.74 28.79,-25.24 28.79,-32.24"/>
</g>
</g>
</svg>
